<?xml version="1.0" standalone="no"?>
<!DOCTYPE svg PUBLIC "-//W3C//DTD SVG 20010904//EN"
 "http://www.w3.org/TR/2001/REC-SVG-20010904/DTD/svg10.dtd">
<svg version="1.0" xmlns="http://www.w3.org/2000/svg"
 width="802.000000pt" height="802.000000pt" viewBox="0 0 802.000000 802.000000"
 preserveAspectRatio="xMidYMid meet">
<metadata>
Created by potrace 1.14, written by Peter Selinger 2001-2017
</metadata>
<g transform="translate(0.000000,802.000000) scale(0.100000,-0.100000)"
fill="#000000" stroke="none">
<path d="M2862 7233 c-5 -10 -7 -24 -5 -30 3 -7 -5 -29 -17 -48 -33 -54 -75
-62 -213 -42 -152 23 -186 22 -241 -9 -25 -14 -46 -29 -46 -32 0 -4 -16 -25
-35 -47 -39 -44 -64 -107 -71 -177 -5 -38 -1 -53 21 -87 28 -45 28 -45 -39
-55 -85 -12 -163 -129 -173 -260 -7 -86 5 -114 61 -147 32 -18 33 -20 22 -55
-7 -23 -29 -51 -61 -77 -296 -244 -521 -532 -677 -866 -52 -111 -133 -341
-144 -409 -6 -36 -10 -42 -38 -48 -49 -10 -51 -15 -17 -43 l33 -27 -16 -109
c-9 -61 -20 -157 -24 -214 l-7 -104 -150 -37 c-169 -41 -320 -91 -380 -125
-22 -12 -56 -26 -75 -30 -19 -4 -46 -18 -60 -30 -27 -25 -42 -36 -311 -216
-96 -64 -180 -123 -187 -132 -12 -14 -10 -17 11 -22 14 -4 49 0 78 9 30 8 81
23 114 32 33 9 80 22 105 29 122 35 198 53 225 54 93 3 516 56 632 80 39 7 42
6 46 -16 3 -17 -2 -28 -17 -38 -43 -27 -132 -76 -173 -95 -23 -10 -84 -49
-135 -87 -87 -63 -127 -93 -268 -202 -30 -23 -114 -87 -185 -141 -158 -120
-345 -277 -345 -291 0 -23 40 -21 129 9 53 17 112 34 131 38 19 3 92 30 162
60 70 30 132 54 138 54 5 0 18 4 28 9 47 25 302 131 314 130 7 0 30 -22 51
-50 31 -41 42 -48 63 -45 20 4 113 63 134 86 13 14 88 67 112 79 45 23 44 5
-3 -47 -24 -26 -90 -97 -145 -157 -56 -61 -124 -137 -150 -170 -67 -82 -75
-92 -107 -128 -16 -18 -36 -41 -46 -52 -98 -116 -122 -146 -148 -185 -17 -25
-43 -58 -58 -75 -34 -38 -165 -233 -165 -246 0 -5 -4 -9 -9 -9 -7 0 -61 -111
-61 -126 0 -15 69 44 161 138 58 59 108 108 112 108 3 0 17 9 29 21 13 11 46
38 73 61 28 22 59 48 70 57 110 92 165 118 165 78 0 -43 66 -117 104 -117 8 0
27 17 42 38 36 48 146 162 157 162 9 0 6 -22 -8 -90 -3 -14 -10 -87 -15 -163
-5 -75 -11 -141 -14 -145 -2 -4 -7 -138 -11 -297 -12 -558 -12 -567 -31 -605
-9 -19 -41 -73 -70 -120 -29 -47 -56 -98 -60 -115 -9 -38 -178 -328 -249 -427
l-56 -78 3496 0 3495 0 0 25 c0 13 -11 68 -24 121 -29 113 -158 383 -243 506
-30 43 -58 89 -63 102 -8 21 -149 136 -166 136 -14 0 -303 222 -450 345 -33
28 -80 66 -104 85 -24 19 -51 42 -59 51 -9 9 -47 42 -86 74 -92 76 -121 106
-175 180 -100 137 -342 455 -351 461 -5 3 -9 10 -9 16 0 6 24 -10 53 -34 28
-25 66 -53 82 -64 17 -10 41 -29 55 -42 14 -12 88 -66 164 -120 76 -53 155
-112 174 -129 20 -18 42 -33 48 -33 7 0 41 -22 76 -48 80 -61 129 -91 168
-102 16 -5 30 -8 30 -7 0 13 -49 94 -54 90 -3 -4 -6 -2 -6 3 0 6 -21 39 -47
74 -78 107 -152 230 -147 244 3 8 -2 16 -10 19 -8 3 -27 32 -43 64 -15 32 -33
62 -40 66 -7 4 -13 15 -13 23 0 9 -11 30 -25 48 -14 18 -25 38 -25 44 0 6 -3
12 -7 14 -5 2 -21 23 -38 47 -39 57 -258 278 -418 421 -70 63 -123 118 -119
122 5 5 59 -16 120 -47 61 -30 114 -55 117 -55 4 0 30 -11 58 -24 29 -12 93
-38 142 -56 50 -18 119 -44 155 -58 36 -14 121 -44 190 -67 69 -24 149 -52
178 -64 29 -11 56 -20 60 -19 4 1 24 -6 46 -15 21 -9 40 -17 43 -17 15 0 94
-43 127 -69 21 -17 43 -31 47 -31 5 0 11 0 14 0 2 -1 44 -18 92 -40 48 -21 90
-37 92 -34 2 2 -13 19 -35 38 -21 19 -66 59 -99 90 -33 31 -63 56 -67 56 -5 0
-8 7 -8 15 0 8 -5 15 -11 15 -18 0 -225 215 -239 249 -9 24 -15 29 -21 19 -7
-10 -9 -9 -9 5 0 9 -5 17 -10 17 -6 0 -15 11 -20 24 -5 13 -21 32 -35 43 -15
10 -46 35 -71 55 -41 34 -85 64 -209 142 -62 39 -70 43 -194 106 -56 28 -101
55 -101 59 0 23 76 67 93 53 13 -11 92 -39 129 -46 23 -4 99 -25 188 -51 219
-65 291 -85 320 -89 8 -1 22 -5 30 -8 8 -3 33 -10 55 -16 22 -6 74 -20 115
-31 41 -12 152 -39 245 -61 94 -22 193 -47 220 -54 28 -8 86 -22 130 -31 44
-8 95 -20 113 -26 18 -6 35 -9 38 -7 5 5 -100 90 -171 138 -27 19 -91 68 -142
109 -106 88 -177 141 -188 141 -4 0 -28 17 -54 38 -55 45 -115 81 -131 79 -3
-1 -18 6 -35 15 -16 9 -47 23 -67 32 -21 9 -53 22 -70 30 -18 8 -64 26 -103
41 -80 31 -163 71 -185 90 -8 7 -55 31 -105 53 -88 39 -147 66 -270 122 -33
15 -109 46 -170 70 -60 24 -131 51 -157 61 -26 11 -55 19 -65 19 -11 0 -23 4
-28 8 -6 5 -30 14 -54 21 l-43 12 27 29 c14 15 26 36 24 46 -1 11 2 28 6 38
25 58 -38 90 -484 251 -34 13 -66 27 -70 32 -4 4 -15 53 -25 108 -22 133 -93
342 -161 477 -237 471 -666 810 -1168 922 -65 15 -153 29 -198 33 -68 5 -79 8
-73 22 3 9 5 45 5 80 -2 53 -7 71 -32 108 -34 49 -76 93 -89 93 -5 0 -19 18
-31 39 -31 55 -102 92 -189 99 -66 4 -69 6 -104 48 -20 24 -58 56 -84 71 -44
26 -54 28 -162 28 -96 0 -123 -4 -162 -22 l-46 -22 -8 27 c-4 15 -8 33 -10 39
-5 26 -46 83 -59 83 -8 0 -18 -8 -23 -17z m217 -1079 c13 -12 -8 -10 -29 2
l-25 15 25 -7 c14 -3 27 -8 29 -10z m-69 2 c0 -2 -12 -11 -27 -20 l-28 -17 24
20 c23 21 31 25 31 17z m101 -23 c13 -16 12 -17 -3 -4 -10 7 -18 15 -18 17 0
8 8 3 21 -13z m-92 -37 c-2 -2 -15 -9 -29 -15 -24 -11 -24 -11 -6 3 16 13 49
24 35 12z m1581 -31 c18 -9 32 -27 36 -43 23 -95 108 -220 252 -370 75 -80 87
-102 128 -235 l27 -88 31 26 c96 79 147 95 186 60 31 -28 123 -336 106 -353
-9 -8 -53 7 -74 25 -16 14 -25 42 -38 123 -11 68 -23 109 -33 117 -33 25 -52
22 -87 -13 -20 -19 -38 -34 -41 -34 -3 0 -23 -16 -46 -35 -37 -32 -76 -48 -63
-26 3 5 0 11 -8 14 -13 5 -40 102 -52 187 -3 24 -8 49 -12 55 -3 5 -7 18 -7
28 -1 9 -22 39 -48 65 -25 26 -69 74 -97 107 -28 33 -63 73 -77 89 -31 35 -73
123 -73 153 0 12 -5 34 -10 48 -8 21 -14 25 -33 19 -12 -3 -23 -10 -25 -14
-15 -39 -112 -162 -188 -238 -51 -52 -91 -98 -89 -102 3 -5 2 -10 -3 -12 -4
-1 -17 -19 -30 -38 -13 -22 -22 -29 -22 -18 0 26 -33 30 -92 13 -29 -9 -69
-21 -89 -27 -20 -5 -56 -8 -80 -5 -24 3 -53 6 -63 6 -38 2 -8 11 70 22 78 11
163 46 225 91 44 33 215 231 264 307 43 67 67 94 95 104 24 9 29 8 60 -8z
m-1662 -33 c15 12 16 11 3 -4 -16 -22 -31 -14 -30 15 2 21 2 21 6 -1 4 -20 7
-21 21 -10z m209 -24 c-3 -8 -6 -5 -6 6 -1 11 2 17 5 13 3 -3 4 -12 1 -19z
m-21 -56 c-17 -16 -18 -16 -5 5 7 12 15 20 18 17 3 -2 -3 -12 -13 -22z m-35
-9 c13 -16 12 -17 -3 -4 -10 7 -18 15 -18 17 0 8 8 3 21 -13z m559 -170 c0 -5
-10 -37 -22 -72 l-22 -63 -11 53 c-10 49 -9 56 8 72 20 17 47 23 47 10z m-375
-1122 c-3 -6 -16 -16 -28 -22 -21 -11 -21 -10 2 15 23 25 40 29 26 7z m2456
-303 c24 -18 52 -37 61 -43 36 -22 134 -90 146 -102 7 -7 19 -13 25 -13 7 0
28 -13 47 -29 30 -24 86 -59 288 -178 11 -7 10 -12 -2 -28 -14 -20 -15 -20
-63 4 -26 12 -100 52 -163 89 -102 58 -138 82 -240 161 -14 11 -65 45 -113 76
-86 55 -88 57 -71 76 23 26 34 24 85 -13z m-135 -469 c3 -5 12 -9 20 -9 8 0
27 -11 42 -25 15 -14 40 -32 57 -40 16 -8 44 -23 60 -35 17 -11 44 -20 60 -20
21 0 26 -3 16 -9 -17 -11 3 -25 24 -17 8 3 14 0 12 -6 -1 -7 10 -18 26 -25 32
-17 33 -23 7 -55 -29 -37 -75 -54 -98 -37 -198 147 -199 149 -251 229 -28 44
-51 84 -51 89 0 11 66 -25 76 -40z m424 -790 c0 -5 7 -9 15 -9 8 0 15 -5 15
-12 0 -6 26 -37 58 -68 106 -105 115 -119 45 -70 -35 23 -73 57 -86 74 -13 17
-36 48 -51 69 -20 25 -23 35 -12 31 9 -3 16 -10 16 -15z m-2030 -84 c0 -14 -4
-25 -10 -25 -8 0 -8 23 -1 48 4 12 11 -3 11 -23z"/>
<path d="M3995 7127 c-2 -7 -8 -32 -13 -57 -6 -25 -22 -98 -36 -162 -35 -158
-35 -160 11 -156 35 3 38 6 48 48 9 38 15 45 37 48 28 3 29 1 52 -100 6 -25
11 -28 47 -28 26 0 42 -5 45 -15 4 -10 20 -15 49 -15 23 0 70 -3 105 -7 49 -5
64 -10 68 -25 3 -14 14 -18 48 -18 39 0 46 3 55 27 14 36 27 19 31 -41 3 -47
5 -50 36 -58 23 -6 32 -14 32 -29 0 -17 5 -20 38 -17 31 3 40 8 54 38 9 19 22
54 28 78 10 40 13 42 38 35 15 -4 42 -8 60 -7 17 0 32 -3 32 -7 0 -4 -16 -58
-35 -120 -20 -62 -33 -119 -31 -126 3 -7 21 -13 39 -13 l34 0 48 133 c61 168
65 200 34 220 -41 26 -87 31 -116 12 -28 -19 -43 -9 -43 31 0 28 -27 51 -72
59 -35 7 -36 6 -42 -27 -4 -18 -12 -53 -19 -78 -11 -45 -11 -45 -18 -15 -4 17
-7 55 -8 85 -1 30 -4 65 -7 76 -7 26 -43 44 -88 44 -30 0 -35 -4 -54 -47 -11
-27 -30 -81 -42 -121 l-23 -74 -31 6 c-17 4 -48 9 -68 13 l-38 6 0 61 c0 33 5
101 11 150 10 83 10 91 -8 103 -10 8 -31 13 -48 11 l-30 -3 -11 -118 c-6 -64
-13 -120 -16 -122 -5 -6 -12 27 -43 201 -15 82 -19 93 -43 104 -46 21 -93 29
-97 17z m65 -223 c0 -24 -5 -34 -15 -34 -16 0 -19 20 -9 57 9 33 24 18 24 -23z
m477 -176 c-3 -8 -6 -5 -6 6 -1 11 2 17 5 13 3 -3 4 -12 1 -19z"/>
<path d="M4973 6593 c-45 -97 -93 -216 -93 -232 0 -10 45 -31 66 -31 8 0 23
20 34 45 11 25 22 45 26 45 3 0 4 -35 2 -77 l-3 -77 32 -21 c28 -18 31 -24 27
-55 -3 -27 1 -41 20 -62 14 -16 29 -28 35 -28 5 0 18 26 28 58 l17 57 6 -80
c7 -93 19 -126 55 -152 14 -10 49 -42 78 -71 29 -30 64 -60 78 -67 26 -14 28
-14 87 23 19 11 18 6 -10 -55 -37 -82 -47 -158 -25 -199 9 -17 34 -49 57 -72
36 -35 40 -44 30 -62 -9 -16 -7 -26 9 -49 40 -56 46 -56 81 1 30 49 33 51 46
33 19 -25 18 -110 -2 -196 -15 -65 -15 -75 2 -135 9 -36 21 -67 25 -70 5 -2
16 21 26 53 13 42 18 91 18 181 l0 122 26 0 c59 0 101 94 75 168 -25 69 -63
120 -108 142 -26 12 -45 16 -52 11 -13 -11 -86 51 -86 72 0 6 11 26 24 42 l25
30 70 -70 c39 -38 71 -66 71 -62 0 20 -57 90 -134 166 l-86 83 0 62 c0 43 -7
76 -24 112 -24 52 -90 117 -115 112 -7 -2 -28 -47 -46 -100 -41 -121 -79 -205
-87 -193 -3 6 17 64 44 130 38 90 52 136 56 186 4 61 3 67 -19 83 -37 25 -46
20 -53 -35 -4 -28 -15 -71 -26 -97 l-19 -47 0 91 c-1 148 -9 183 -45 205 -17
10 -33 15 -37 11 -3 -4 -21 -52 -39 -107 -43 -132 -53 -146 -45 -65 13 143 18
259 11 284 -6 24 -53 56 -81 56 -4 0 -27 -44 -52 -97z m506 -478 c1 -74 -22
-128 -73 -173 -48 -42 -60 -41 -40 6 28 66 66 166 81 217 13 41 17 47 24 30 4
-11 8 -47 8 -80z m126 -375 l38 -39 -24 -46 c-13 -25 -31 -54 -39 -65 -15 -19
-15 -19 -48 2 -31 19 -33 24 -27 57 8 42 45 131 54 131 4 0 24 -18 46 -40z
m175 -129 c0 -10 -10 -33 -23 -52 -17 -25 -31 -35 -55 -37 -18 -2 -32 0 -32 5
0 4 16 29 35 56 37 49 75 64 75 28z"/>
</g>
</svg>
